<svg width="12" height="12" viewBox="0 0 12 12" fill="none" xmlns="http://www.w3.org/2000/svg">
<path d="M5.21028 9.58329C5.21027 9.51966 5.19627 9.45681 5.16926 9.39919C5.14225 9.34158 5.10291 9.29061 5.05401 9.2499C5.00511 9.20919 4.94785 9.17973 4.8863 9.16361C4.82475 9.14749 4.7604 9.14511 4.69782 9.15663C4.12986 9.26086 3.41276 9.27653 3.2221 8.74098C3.05584 8.32622 2.78045 7.96416 2.42513 7.69321C2.39978 7.67942 2.37561 7.66354 2.35289 7.64575C2.32179 7.56372 2.26656 7.49304 2.19447 7.44304C2.12239 7.39305 2.03684 7.36607 1.94911 7.36569H1.94699C1.83228 7.36565 1.72222 7.41105 1.64091 7.49197C1.55959 7.57289 1.51365 7.68272 1.51313 7.79743C1.51143 8.15122 1.86499 8.37789 2.00843 8.45458C2.17756 8.62453 2.3135 8.82454 2.40924 9.04436C2.56728 9.4884 3.02656 10.1621 4.34679 10.0752C4.34723 10.0905 4.34764 10.1049 4.34785 10.118L4.34976 10.2341C4.34976 10.3492 4.39547 10.4595 4.47683 10.5409C4.5582 10.6223 4.66855 10.668 4.78362 10.668C4.89869 10.668 5.00904 10.6223 5.09041 10.5409C5.17177 10.4595 5.21748 10.3492 5.21748 10.2341L5.21536 10.096C5.21325 10.0138 5.21028 9.8947 5.21028 9.58329ZM9.83829 3.02068C9.85206 2.96645 9.86562 2.90629 9.87748 2.83849C9.94765 2.35499 9.88648 1.86152 9.70038 1.40979C9.6769 1.35089 9.64082 1.29785 9.59467 1.25438C9.54852 1.2109 9.49343 1.17805 9.43324 1.15812C9.27878 1.106 8.70851 1.00347 7.61793 1.70044C6.71139 1.48711 5.7677 1.48711 4.86116 1.70044C3.77502 1.01367 3.20769 1.10687 3.05474 1.15602C2.99307 1.17514 2.93646 1.20782 2.88907 1.25166C2.84167 1.29551 2.80468 1.3494 2.78082 1.40939C2.59092 1.8698 2.53041 2.37334 2.60583 2.86562C2.61643 2.92113 2.62786 2.9724 2.63973 3.01942C2.28031 3.49817 2.08886 4.08211 2.09507 4.68073C2.0939 4.81429 2.10005 4.94781 2.1135 5.08069C2.25841 7.07756 3.56 7.67709 4.46691 7.88301C4.44806 7.93724 4.4309 7.99528 4.41564 8.05672C4.38846 8.16835 4.40665 8.28621 4.46623 8.38445C4.52581 8.48269 4.62192 8.55329 4.73348 8.58077C4.84504 8.60825 4.96294 8.59037 5.06134 8.53105C5.15973 8.47174 5.23059 8.37582 5.25837 8.26433C5.28597 8.11977 5.35673 7.98697 5.46132 7.88343C5.52456 7.82807 5.57034 7.75552 5.59311 7.67461C5.61587 7.5937 5.61463 7.50792 5.58954 7.42771C5.56445 7.34749 5.51658 7.2763 5.45177 7.22278C5.38696 7.16927 5.30799 7.13575 5.22447 7.12629C3.72587 6.95512 3.07529 6.34458 2.97741 5.00104C2.96657 4.89463 2.96169 4.78769 2.9628 4.68073C2.95584 4.25409 3.09679 3.8382 3.3617 3.50371C3.38832 3.46884 3.41667 3.43532 3.44665 3.40329C3.49977 3.34385 3.53549 3.27093 3.54988 3.19252C3.56426 3.11412 3.55677 3.03327 3.52822 2.95884C3.49895 2.88054 3.47641 2.79989 3.46085 2.71776C3.42551 2.48421 3.4371 2.24597 3.49496 2.01696C3.87204 2.12346 4.22693 2.29682 4.54273 2.52878C4.59496 2.56357 4.65405 2.58671 4.71601 2.59666C4.77796 2.6066 4.84133 2.6031 4.90182 2.58641C5.7787 2.34843 6.70318 2.34858 7.57998 2.58684C7.6408 2.60352 7.7045 2.60682 7.76671 2.5965C7.82892 2.58619 7.88815 2.56251 7.94033 2.5271C8.25466 2.29418 8.60806 2.11927 8.98389 2.01062C9.04149 2.23413 9.05438 2.46681 9.02181 2.69531C9.0061 2.78535 8.98155 2.87362 8.94851 2.95885C8.91996 3.03327 8.91247 3.11413 8.92686 3.19253C8.94125 3.27094 8.97696 3.34386 9.03008 3.4033C9.06355 3.44101 9.09702 3.48168 9.1271 3.51981C9.39015 3.84865 9.52871 4.25976 9.5184 4.68073C9.51918 4.79336 9.51374 4.90595 9.50209 5.01799C9.40654 6.34372 8.75342 6.95469 7.24782 7.12628C7.16429 7.1358 7.08531 7.16938 7.02051 7.22294C6.9557 7.27651 6.90786 7.34775 6.88279 7.428C6.85772 7.50826 6.85651 7.59406 6.87931 7.67499C6.9021 7.75592 6.94792 7.82848 7.01119 7.88385C7.11906 7.99016 7.18998 8.12827 7.2135 8.27788C7.24282 8.39403 7.25629 8.51361 7.25355 8.63337V9.646C7.2493 9.9269 7.2493 10.1375 7.2493 10.2341C7.2493 10.3491 7.29501 10.4595 7.37637 10.5409C7.45774 10.6222 7.56809 10.6679 7.68316 10.6679C7.79823 10.6679 7.90858 10.6222 7.98995 10.5409C8.07131 10.4595 8.11702 10.3491 8.11702 10.2341C8.11702 10.14 8.11702 9.93368 8.12126 9.65277V8.63337C8.12475 8.44152 8.10216 8.2501 8.0541 8.06434C8.04036 8.00337 8.02353 7.94313 8.00368 7.88385C8.6637 7.77421 9.26339 7.43392 9.69602 6.92355C10.1286 6.41318 10.3661 5.76586 10.3662 5.0968C10.3805 4.95858 10.3871 4.81968 10.3861 4.68073C10.3958 4.08146 10.2027 3.49651 9.83829 3.02069L9.83829 3.02068Z" fill="#FAFBFF"/>
</svg>
