<svg width="52" height="51" viewBox="0 0 52 51" fill="none" xmlns="http://www.w3.org/2000/svg">
<path d="M51.4118 25.4119C51.4118 39.4464 40.0343 50.8239 25.9998 50.8239C11.9654 50.8239 0.587891 39.4464 0.587891 25.4119C0.587891 11.3775 11.9654 0 25.9998 0C40.0343 0 51.4118 11.3775 51.4118 25.4119Z" fill="#E1E8ED"/>
<path d="M42.9412 25.412C42.9412 34.7692 35.3571 42.3533 25.9999 42.3533C16.6426 42.3533 9.05859 34.7692 9.05859 25.412C9.05859 16.0547 16.6426 8.47069 25.9999 8.47069C35.3571 8.47069 42.9412 16.0547 42.9412 25.412Z" fill="#CCD6DD"/>
<path d="M41.5292 25.412C41.5292 33.9885 34.5763 40.9415 25.9997 40.9415C17.4218 40.9415 10.4702 33.9885 10.4702 25.412C10.4702 16.834 17.4232 9.88247 25.9997 9.88247C34.5763 9.88247 41.5292 16.834 41.5292 25.412Z" fill="#E1E8ED"/>
<path d="M1.99966 2.82355C2.77937 2.82355 3.41144 2.19148 3.41144 1.41177C3.41144 0.632073 2.77937 0 1.99966 0C1.21996 0 0.587891 0.632073 0.587891 1.41177C0.587891 2.19148 1.21996 2.82355 1.99966 2.82355Z" fill="#99AAB5"/>
<path d="M0.587891 1.41178H3.41144V11.2942H0.587891V1.41178Z" fill="#99AAB5"/>
<path d="M7.64664 2.82355C8.42634 2.82355 9.05841 2.19148 9.05841 1.41177C9.05841 0.632073 8.42634 0 7.64664 0C6.86694 0 6.23486 0.632073 6.23486 1.41177C6.23486 2.19148 6.86694 2.82355 7.64664 2.82355Z" fill="#99AAB5"/>
<path d="M6.23486 1.41178H9.05841V11.2942H6.23486V1.41178Z" fill="#99AAB5"/>
<path d="M13.2941 2.82355C14.0738 2.82355 14.7059 2.19148 14.7059 1.41177C14.7059 0.632073 14.0738 0 13.2941 0C12.5144 0 11.8823 0.632073 11.8823 1.41177C11.8823 2.19148 12.5144 2.82355 13.2941 2.82355Z" fill="#99AAB5"/>
<path d="M11.8821 1.41178H14.7057V11.2942H11.8821V1.41178ZM4.82324 19.7648H10.4703V48.0003H4.82324V19.7648Z" fill="#99AAB5"/>
<path d="M7.64679 50.8238C9.20619 50.8238 10.4703 49.5597 10.4703 48.0003C10.4703 46.4409 9.20619 45.1767 7.64679 45.1767C6.08739 45.1767 4.82324 46.4409 4.82324 48.0003C4.82324 49.5597 6.08739 50.8238 7.64679 50.8238Z" fill="#99AAB5"/>
<path d="M11.8821 11.2943C11.8821 12.0736 11.2496 12.706 10.4703 12.706C9.69101 12.706 9.05853 12.0736 9.05853 11.2943H6.23499C6.23499 12.0736 5.60251 12.706 4.82321 12.706C4.04391 12.706 3.41144 12.0736 3.41144 11.2943H0.587891C0.587891 16.7522 1.99966 21.1767 7.64676 21.1767C13.2939 21.1767 14.7056 16.7522 14.7056 11.2943H11.8821Z" fill="#99AAB5"/>
<path d="M1.99966 12.706C2.77937 12.706 3.41144 12.0739 3.41144 11.2942C3.41144 10.5145 2.77937 9.88247 1.99966 9.88247C1.21996 9.88247 0.587891 10.5145 0.587891 11.2942C0.587891 12.0739 1.21996 12.706 1.99966 12.706Z" fill="#99AAB5"/>
<path d="M7.64664 12.706C8.42634 12.706 9.05841 12.0739 9.05841 11.2942C9.05841 10.5145 8.42634 9.88247 7.64664 9.88247C6.86694 9.88247 6.23486 10.5145 6.23486 11.2942C6.23486 12.0739 6.86694 12.706 7.64664 12.706Z" fill="#99AAB5"/>
<path d="M13.2941 12.706C14.0738 12.706 14.7059 12.0739 14.7059 11.2942C14.7059 10.5145 14.0738 9.88247 13.2941 9.88247C12.5144 9.88247 11.8823 10.5145 11.8823 11.2942C11.8823 12.0739 12.5144 12.706 13.2941 12.706Z" fill="#99AAB5"/>
<path d="M42.9409 19.7649H48.588V48.0004H42.9409V19.7649Z" fill="#99AAB5"/>
<path d="M45.7645 50.8238C47.3239 50.8238 48.588 49.5597 48.588 48.0003C48.588 46.4409 47.3239 45.1767 45.7645 45.1767C44.2051 45.1767 42.9409 46.4409 42.9409 48.0003C42.9409 49.5597 44.2051 50.8238 45.7645 50.8238Z" fill="#99AAB5"/>
<path d="M45.7644 0C47.1762 0 48.588 1.41177 48.588 4.23532V26.8237C48.588 26.8237 38.7056 29.6473 38.7056 15.5295C38.7056 7.05887 42.9409 0 45.7644 0Z" fill="#99AAB5"/>
</svg>
