<svg width="50" height="50" viewBox="0 0 50 50" fill="none" xmlns="http://www.w3.org/2000/svg">
<path d="M25.0002 49.1664C38.5771 49.1664 49.5834 38.1601 49.5834 24.5832C49.5834 11.0063 38.5771 0 25.0002 0C11.4233 0 0.416992 11.0063 0.416992 24.5832C0.416992 38.1601 11.4233 49.1664 25.0002 49.1664Z" fill="#FFCC4D"/>
<path d="M9.97548 23.2175C9.77062 23.2175 9.56167 23.171 9.36637 23.0741C8.69169 22.7367 8.41855 21.9159 8.75588 21.2412C8.8269 21.0978 10.5559 17.7545 15.4398 17.7545C20.325 17.7545 22.0527 21.0992 22.1237 21.2412C22.461 21.9159 22.1865 22.7367 21.5132 23.0741C20.8426 23.4114 20.0314 23.141 19.6886 22.4786C19.6285 22.368 18.5537 20.486 15.4398 20.486C12.2754 20.486 11.2074 22.4431 11.1978 22.4622C10.9588 22.9416 10.4767 23.2175 9.97548 23.2175V23.2175ZM40.023 23.2175C40.2278 23.2175 40.4368 23.171 40.6321 23.0741C41.3068 22.7367 41.5799 21.9159 41.2426 21.2412C41.1716 21.0978 39.4425 17.7545 34.5587 17.7545C29.6735 17.7545 27.9458 21.0992 27.8748 21.2412C27.5374 21.9159 27.812 22.7367 28.4853 23.0741C29.1558 23.4114 29.9671 23.141 30.3099 22.4786C30.37 22.368 31.4448 20.486 34.5587 20.486C37.7231 20.486 38.7911 22.4431 38.8006 22.4622C39.0396 22.9416 39.5218 23.2175 40.023 23.2175V23.2175ZM40.7099 32.122C41.1511 31.0991 41.3395 30.4053 41.3464 30.378C41.5294 29.6487 41.0869 28.9098 40.3562 28.7255C39.6242 28.5397 38.8853 28.9822 38.6968 29.7129C38.5958 30.1158 36.0364 39.6063 24.9999 39.6063C13.9634 39.6063 11.404 30.1158 11.3016 29.7115C11.1131 28.9822 10.3743 28.5397 9.64224 28.7241C8.91294 28.9085 8.47045 29.6473 8.65209 30.3766C8.68213 30.4968 11.7946 42.3377 24.9999 42.3377C27.2534 42.3377 29.1927 41.9744 30.893 41.4022C36.8067 39.411 39.5982 34.6964 40.7099 32.122V32.122Z" fill="#664500"/>
<path d="M44.6762 36.4392L40.6391 32.2723C40.6391 32.2723 39.7104 31.6742 38.9005 33.0481C37.8352 34.8536 36.0666 37.0565 33.5277 38.7446C32.4611 39.4534 30.6064 40.3684 29.8443 40.5446C28.8405 40.7754 29.3144 41.8612 29.3144 41.8612C30.1134 41.6877 30.7498 41.4501 30.7498 41.4501L31.1541 41.8543L34.877 45.5773C37.237 47.9373 41.7057 48.3088 44.4372 45.5773C47.1686 42.8459 47.0375 38.8005 44.6762 36.4392V36.4392Z" fill="#E75B70"/>
<path d="M41.2734 42.4389C41.5643 42.148 41.5643 41.6768 41.2734 41.3859L36.3171 36.4297L35.23 37.4512L40.219 42.4403C40.5099 42.7298 40.9824 42.7298 41.2734 42.4389V42.4389Z" fill="#DE3146"/>
</svg>
