<svg width="68" height="51" viewBox="0 0 68 51" fill="none" xmlns="http://www.w3.org/2000/svg">
<path d="M58.1521 31.5835H20.995V29.7257C20.995 25.6217 17.6676 22.2943 13.5636 22.2943H7.99001C3.88601 22.2943 0.558594 25.6217 0.558594 29.7257V35.2992C0.558594 39.4032 3.88601 42.7307 7.99001 42.7307H60.01C64.114 42.7307 67.4414 39.4032 67.4414 35.2992V31.5835H58.1521Z" fill="#99AAB5"/>
<path d="M19.1371 7.43142H13.8348C7.99001 7.43142 6.13216 11.1471 6.13216 11.1471L0.558594 22.2181V31.5835H24.7107V13.005C24.7107 9.92652 22.2156 7.43142 19.1371 7.43142Z" fill="#FFCC4D"/>
<path d="M17.2794 22.2943H4.27441L7.99012 14.8628C7.99012 14.8628 9.84798 11.1471 13.5637 11.1471H17.2794V22.2943Z" fill="#55ACEE"/>
<path d="M11.7058 50.1621C15.8101 50.1621 19.1373 46.8349 19.1373 42.7307C19.1373 38.6264 15.8101 35.2992 11.7058 35.2992C7.60157 35.2992 4.27441 38.6264 4.27441 42.7307C4.27441 46.8349 7.60157 50.1621 11.7058 50.1621Z" fill="#292F33"/>
<path d="M11.7059 46.4464C13.7581 46.4464 15.4217 44.7828 15.4217 42.7307C15.4217 40.6785 13.7581 39.015 11.7059 39.015C9.65381 39.015 7.99023 40.6785 7.99023 42.7307C7.99023 44.7828 9.65381 46.4464 11.7059 46.4464Z" fill="#CCD6DD"/>
<path d="M56.2942 50.1621C60.3985 50.1621 63.7256 46.8349 63.7256 42.7307C63.7256 38.6264 60.3985 35.2992 56.2942 35.2992C52.19 35.2992 48.8628 38.6264 48.8628 42.7307C48.8628 46.8349 52.19 50.1621 56.2942 50.1621Z" fill="#292F33"/>
<path d="M56.2943 46.4464C58.3465 46.4464 60.01 44.7828 60.01 42.7307C60.01 40.6785 58.3465 39.015 56.2943 39.015C54.2422 39.015 52.5786 40.6785 52.5786 42.7307C52.5786 44.7828 54.2422 46.4464 56.2943 46.4464Z" fill="#CCD6DD"/>
<path d="M37.7156 50.1621C41.8199 50.1621 45.147 46.8349 45.147 42.7307C45.147 38.6264 41.8199 35.2992 37.7156 35.2992C33.6113 35.2992 30.2842 38.6264 30.2842 42.7307C30.2842 46.8349 33.6113 50.1621 37.7156 50.1621Z" fill="#292F33"/>
<path d="M37.7157 46.4464C39.7678 46.4464 41.4314 44.7828 41.4314 42.7307C41.4314 40.6785 39.7678 39.015 37.7157 39.015C35.6636 39.015 34 40.6785 34 42.7307C34 44.7828 35.6636 46.4464 37.7157 46.4464Z" fill="#CCD6DD"/>
<path d="M60.0098 0H35.8577C31.7537 0 28.4263 3.32742 28.4263 7.43142V31.5835H67.4412V7.43142C67.4412 3.32742 64.1138 0 60.0098 0Z" fill="#77B255"/>
</svg>
